<svg width="33" height="94" viewBox="0 0 33 94" fill="none" xmlns="http://www.w3.org/2000/svg">
<path fill-rule="evenodd" clip-rule="evenodd" d="M20.367 54.8624C20.2885 54.4552 20.1316 54.0488 19.9747 53.6432C19.2685 51.4534 18.4838 48.8995 17.0715 47.0142C15.1885 44.5419 13.0703 43.5863 10.9519 43.6075C7.97043 43.6397 4.91083 45.8389 3.02781 48.8525C1.1448 51.8386 0.359901 55.578 1.53679 58.59C2.32138 60.6543 4.04748 62.4157 7.02892 63.376C10.4027 64.4839 13.6195 63.5777 16.444 61.6248C17.5424 60.892 18.4838 60.0101 19.4253 59.0388C19.6607 60.3169 19.8964 61.6076 20.1317 62.9163C20.7594 67.2009 20.9165 71.7044 20.6811 76.0236C20.4457 81.737 19.2684 87.2025 17.0715 92.4828C16.9146 92.9708 17.1501 93.5294 17.6209 93.7303C18.0916 93.9303 18.6406 93.6981 18.8759 93.2101C21.1512 87.7219 22.4072 82.0414 22.6426 76.1037C22.7995 71.659 22.7204 67.0252 22.0143 62.6158C21.7005 60.7892 21.3868 58.9964 20.9945 57.224C22.799 54.8985 24.2114 52.3149 25.0745 50.118C30.5666 35.4219 23.4272 15.6321 16.3659 2.31528C16.1305 1.84923 15.5808 1.67191 15.11 1.91827C14.6393 2.16541 14.4824 2.74365 14.7178 3.2097C21.5437 16.099 28.6053 35.2194 23.2701 49.4433C22.6424 51.116 21.6223 53.0359 20.367 54.8624ZM18.8759 56.7643C18.719 55.9248 18.4841 55.0907 18.1703 54.2591C17.4641 52.2521 16.8366 49.8936 15.5813 48.1668C14.169 46.3002 12.5992 45.5023 11.03 45.518C8.51933 45.5439 6.16587 47.4347 4.67515 49.8724C3.10597 52.3368 2.32122 55.4077 3.34119 57.8941C3.96886 59.4947 5.30297 60.8151 7.57829 61.5597C10.4028 62.4722 13.07 61.6625 15.3453 60.0533C16.6791 59.1581 17.856 58.0173 18.8759 56.7643Z" fill="#86CFC7"/>
<path fill-rule="evenodd" clip-rule="evenodd" d="M15.4256 2.16972C15.8179 2.44668 16.2102 2.86095 16.6024 3.276C17.387 4.07393 18.0933 4.91971 18.721 5.36536C22.487 8.10986 27.0375 11.3541 31.5097 12.7931C31.9804 12.9555 32.5296 12.6801 32.6866 12.1779C32.8435 11.6766 32.6082 11.1376 32.059 10.9752C27.8222 9.5943 23.5065 6.45201 19.819 3.81813C19.1913 3.3364 18.3287 2.31643 17.5441 1.49889C16.838 0.805312 16.1317 0.252174 15.4256 0.0513192C15.0333 -0.0899071 14.3271 0.0670079 13.8564 0.950457C13.2287 2.20266 12.679 5.67997 12.6006 6.01656C11.816 9.42639 11.0316 12.4267 8.05011 14.5796C7.65781 14.8895 7.57951 15.4882 7.81488 15.9142C8.12872 16.3402 8.75654 16.4344 9.14884 16.1237C12.5226 13.6695 13.6209 10.3091 14.4839 6.42219C14.4839 6.17426 14.7977 4.09588 15.2685 2.65145C15.347 2.49531 15.3471 2.3235 15.4256 2.16972Z" fill="#86CFC7"/>
</svg>
